<svg xmlns="http://www.w3.org/2000/svg" viewBox="0 0 100 100" fill="currentColor">
  <path d="M40.9,15.8H16.6c-0.3,0-0.5,0.1-0.6,0.3l-5.3,9.2c-0.1,0.2-0.1,0.5,0,0.7L39,75c0.3,0.5,0.9,0.5,1.2,0l23.2-40.2c0.3-0.5-0.1-1-0.6-1h-9c-0.5,0-0.9-0.6-0.6-1.1l3.9-6.8c0.1-0.2,0.4-0.3,0.6-0.3h19.2c0.5,0,0.9,0.6,0.6,1L44.3,84.2l0,0h11c0.3,0,0.5-0.1,0.6-0.3L89.3,26c0.1-0.2,0.1-0.5,0-0.7L84,16.1c-0.1-0.2-0.4-0.3-0.6-0.3H51.9c-0.3,0-0.5,0.1-0.6,0.4L37.6,39.9c-0.3,0.5,0.1,1,0.6,1h9.1c0.5,0,0.9,0.6,0.6,1l-7.7,13.3c-0.3,0.5-0.9,0.5-1.2,0L22.5,26.7c-0.3-0.5,0.1-1,0.6-1H36c0.3,0,0.5-0.1,0.6-0.4l4.9-8.5C41.8,16.3,41.4,15.8,40.9,15.8z"/>
</svg>
